/vscmnt/brussel_pixiu_data/_data_brussel/112/vsc11236/PredSimResults/SUBJ10opt3D/expIG/worker_07.mot
version=1
nRows=5
nColumns=50
inDegrees=yes
endheader
                time	         pelvis_tilt	         pelvis_list	     pelvis_rotation	           pelvis_tx	           pelvis_ty	           pelvis_tz	       hip_flexion_r	     hip_adduction_r	      hip_rotation_r	        knee_angle_r	       ankle_angle_r	         mtp_angle_r	       hip_flexion_l	     hip_adduction_l	      hip_rotation_l	        knee_angle_l	       ankle_angle_l	         mtp_angle_l	    lumbar_extension	      lumbar_bending	     lumbar_rotation	 ercspn_r/activation	 intobl_r/activation	 extobl_r/activation	    abd_r/activation	    add_r/activation	hamstrings_r/activation	bifemsh_r/activation	glut_max_r/activation	iliopsoas_r/activation	rect_fem_r/activation	  vasti_r/activation	gastroc_r/activation	 soleus_r/activation	tib_ant_r/activation	 ercspn_l/activation	 intobl_l/activation	 extobl_l/activation	    abd_l/activation	    add_l/activation	hamstrings_l/activation	bifemsh_l/activation	glut_max_l/activation	iliopsoas_l/activation	rect_fem_l/activation	  vasti_l/activation	gastroc_l/activation	 soleus_l/activation	tib_ant_l/activation	
          0.00000000	         -4.20584273	         -0.98905969	          7.36207174	          0.00000000	          0.82268965	         -0.01238177	         31.11865927	         -1.69116031	         -5.99233543	         -6.98702098	          3.31317683	          0.26510580	        -16.43595099	         -0.95622016	         -0.10748320	         -5.24708443	          8.15452286	         26.17264763	         -6.62659074	         -0.75952089	         -6.24138062	          0.12113137	          0.18383266	          0.01000000	          0.01000001	          0.12156895	          0.12117303	          0.25300192	          0.02696522	          0.10443540	          0.01000003	          0.01000000	          0.01000006	          0.01000000	          0.28135379	          0.06614235	          0.00999999	          0.01000000	          0.05418210	          0.01000000	          0.01405648	          0.22741286	          0.01324966	          0.37275174	          0.01000003	          0.00999999	          0.31153180	          0.24937987	          0.02495930	
          0.01117320	         -4.24560445	         -0.94969040	          7.46773398	          0.01551481	          0.82130907	         -0.01223651	         31.02586707	         -1.57986992	         -5.75747563	         -8.52895324	          3.05039433	          0.26221457	        -16.54509988	         -1.05810784	         -0.40646826	         -6.89540812	          7.46708843	         27.84256250	         -6.44123153	         -0.33377282	         -6.54205100	          0.10211545	          0.15497350	          0.01000001	          0.00999999	          0.16569351	          0.10411200	          0.21398045	          0.06342125	          0.08804050	          0.01000000	          0.00999999	          0.01669153	          0.01186221	          0.30503220	          0.10457461	          0.00999999	          0.01000000	          0.04567627	          0.01000022	          0.01186668	          0.19171222	          0.01186220	          0.31423492	          0.01000002	          0.01000000	          0.27801794	          0.23977985	          0.02104104	
          0.02234640	         -4.27535457	         -0.92289401	          7.53230907	          0.03133988	          0.82012567	         -0.01201200	         30.76304147	         -1.47855208	         -5.46160277	         -9.94504654	          2.65610695	          0.25367737	        -16.54620501	         -1.18030330	         -0.73381507	         -8.77190082	          6.64486678	         29.46161687	         -6.23334650	          0.11442690	         -6.81866394	          0.09555551	          0.13064482	          0.01000000	          0.03527909	          0.13968195	          0.09069737	          0.18038851	          0.09734172	          0.07421937	          0.01000000	          0.00999999	          0.01407120	          0.01000001	          0.38878187	          0.11628662	          0.00999999	          0.01000000	          0.03850573	          0.01000002	          0.01000419	          0.16161607	          0.01000001	          0.26490442	          0.01000002	          0.01000000	          0.23437300	          0.22460302	          0.01773789	
          0.03351960	         -4.29650888	         -0.89455905	          7.55004748	          0.04727150	          0.81926327	         -0.01166699	         30.42083466	         -1.37385942	         -5.24458237	        -11.20543709	          2.13860595	          0.24117472	        -16.37180205	         -1.30867957	         -1.09253606	        -10.96414759	          5.68398216	         30.94885301	         -6.02745795	          0.56052218	         -7.06398152	          0.11146242	          0.11013541	          0.01000000	          0.08587013	          0.18063112	          0.07645916	          0.15207004	          0.11490912	          0.06256796	          0.01000000	          0.01000000	          0.01186222	          0.00999999	          0.43952382	          0.14547471	          0.00999999	          0.01000000	          0.03246087	          0.01000001	          0.01083090	          0.13624460	          0.01000000	          0.22331812	          0.01000003	          0.01000000	          0.19757970	          0.20763445	          0.01495329	
          0.04469280	         -4.30821016	         -0.86367676	          7.52494821	          0.06316423	          0.81882315	         -0.01121300	         30.08610236	         -1.26715164	         -5.10512295	        -12.50011584	          1.69988134	          0.22669985	        -15.97345435	         -1.44467924	         -1.48696521	        -13.53100971	          4.59155331	         32.17273852	         -5.83581251	          1.00183911	         -7.27543091	          0.11524537	          0.09284568	          0.01000000	          0.12169213	          0.22772871	          0.06720783	          0.12819716	          0.12218017	          0.05274566	          0.01000000	          0.01214039	          0.01000002	          0.01000000	          0.45881713	          0.17524678	          0.00999999	          0.01000000	          0.02736496	          0.01781178	          0.01998659	          0.11485610	          0.01000001	          0.18826029	          0.01000001	          0.01000000	          0.16656244	          0.18452052	          0.01260583	
